<?xml version="1.0" encoding="UTF-8"?>
<svg id="Layer_1" xmlns="http://www.w3.org/2000/svg" version="1.1" viewBox="0 0 1920 1080">
  <!-- Generator: Adobe Illustrator 29.1.0, SVG Export Plug-In . SVG Version: 2.1.0 Build 142)  -->
  <defs>
    <style>
      .st0 {
        fill: #19222f;
      }

      .st1 {
        fill: #212a35;
      }

      .st2 {
        fill: #232b37;
      }

      .st3 {
        fill: #2d333c;
      }

      .st4 {
        fill: #222934;
      }

      .st5 {
        fill: #222a36;
      }

      .st6 {
        fill: #292f39;
      }

      .st7 {
        fill: #252c37;
      }

      .st8 {
        fill: #212934;
      }

      .st9 {
        fill: #141f2e;
      }

      .st10 {
        fill: #2e333d;
      }

      .st11 {
        fill: #333840;
      }

      .st12 {
        fill: #1f2733;
      }

      .st13 {
        fill: #1d2631;
      }

      .st14 {
        fill: #2b313b;
      }

      .st15 {
        fill: #2c323b;
      }

      .st16 {
        fill: #18222f;
      }

      .st17 {
        fill: #15202e;
      }

      .st18 {
        fill: #30353e;
      }

      .st19 {
        fill: #212833;
      }

      .st20 {
        fill: #17222f;
      }

      .st21 {
        fill: #fc5f03;
      }

      .st22 {
        fill: #fc5a00;
      }

      .st23 {
        fill: #232c37;
      }

      .st24 {
        fill: #212834;
      }

      .st25 {
        fill: #14202e;
      }

      .st26 {
        fill: #fc6200;
      }

      .st27 {
        fill: #fc7014;
      }

      .st28 {
        fill: #17212e;
      }

      .st29 {
        fill: #31373f;
      }

      .st30 {
        fill: #2e343d;
      }

      .st31 {
        fill: #14202d;
      }

      .st32 {
        fill: #fc6100;
      }

      .st33 {
        fill: #232a35;
      }

      .st34 {
        fill: #9c9fa3;
      }

      .st35 {
        fill: #222a35;
      }

      .st36 {
        fill: #fc5d00;
      }

      .st37 {
        fill: #fb5e00;
      }

      .st38 {
        fill: #121e2d;
      }

      .st39 {
        fill: #2a303a;
      }

      .st40 {
        fill: #222834;
      }

      .st41 {
        fill: #fc5700;
      }

      .st42 {
        fill: #242a35;
      }

      .st43 {
        fill: #18212e;
      }

      .st44 {
        fill: #202733;
      }

      .st45 {
        fill: #fc6800;
      }

      .st46 {
        fill: #1e2632;
      }

      .st47 {
        fill: #30363e;
      }

      .st48 {
        fill: #131f2d;
      }

      .st49 {
        fill: #fef7f2;
      }

      .st50 {
        fill: #121f2d;
      }

      .st51 {
        fill: #252c36;
      }

      .st52 {
        fill: #393e46;
      }

      .st53 {
        fill: #1a2330;
      }

      .st54 {
        fill: #323840;
      }

      .st55 {
        fill: #272d38;
      }

      .st56 {
        fill: #fefefe;
      }

      .st57 {
        fill: #252b36;
      }

      .st58 {
        fill: #fc6900;
      }

      .st59 {
        fill: #242c36;
      }

      .st60 {
        fill: #282f39;
      }

      .st61 {
        fill: #2a313a;
      }

      .st62 {
        fill: #2f343e;
      }

      .st63 {
        fill: #fc5f00;
      }

      .st64 {
        fill: #17212f;
      }

      .st65 {
        fill: #fefcfa;
      }
    </style>
  </defs>
  <path class="st52" d="M1351.4,515h.5c5.6-.4,11.9-.4,17.5,0v103.5c-6.4.4-12.9.4-19.5,0-.3-.3-.6-.5-.7-1-13-33.9-26.6-67.6-39.8-101.5v-.8c.2-1,17.2-.5,19.4-.4l.6.7,21.5,54,.5-55c.4.1.4.3,0,.5Z"/>
  <path class="st52" d="M720.9,515l.9.8c2.9,15.1,6.1,30.1,9.1,45.2-.2.9-.7,2.9,0,1.5.1.5.3,1.2.5,2,0,1.4.2,2.7.5,4,.2,2.4.4,2.9.5,1.5,1.6,8.3,4,16.6,5.3,25s.5,1-.3,1h-39c-1.6,3.8-3.5,21-5,22.5-6.2.6-12.8.7-19,0,1.9-5.1,6.5-38.6,8.5-40.5,10.5-.4,21-.6,31.5-.5l-5.5-31c-1.1-.5-1.4,1.9-1.5,2.5-.2.4-.4,1.3-.5,2.5,0,.3,0,.7,0,1-.7.9-.9,1.9-.5,3-.8,5.2-2.4,10.3-3,15.5h-19.5c-.2-.6.4-1.1.5-1.5.6-.9.9-1.9.5-3,3.1-16.9,6.9-33.8,10-50.7l.5-.3v-.5c8.6-.3,17.1-.3,25.5,0Z"/>
  <path class="st27" d="M383.9,586c39.8-.6,79.7-.6,119.5,0,2.5.7,2,1.3,3.5,2.5,0,.5,1.9,2.6,3.5,3,1.1,1,2,2.1,3,3,0,.5,1.9,2.7,3.5,3,1,1,2,2,3,3,0,.5,1.9,2.7,3.5,3,.5.5,1,.6,1.5,1.5v5.5c-.5,1.4-1.1,2-2.5,2.5-51.7.2-103.6.2-155.5,0l-3-.5c-2-1.4-2.6-4.9-1.9-7.1s4.2-3.7,5.4-4.9c.9-.5,1.7-1.1,1.5-1.5,1.7-1.6,3.3-3,5-4.5.9-.5,1.7-1.1,1.5-1.5,2.2-1.9,6-6.3,8.5-7Z"/>
  <path class="st52" d="M613.4,514.5l15.5,39,1-.7,14.5-37.3c6.4-1.1,13.5-.9,20-.5.7,0,.3.5.2.9-.4,1.4-1.2,3.3-1.8,4.8-8.1,21.8-17.2,43.3-25.9,64.9l-.4.5c-4.7.3-9.4.4-14.1.5-.5-.1-.9-.6-1.1-1.1-9.2-23.2-18-46.7-27.4-69.9v-.5c0,0,19.5-.5,19.5-.5Z"/>
  <path class="st52" d="M975.4,514.5c6.6,0,13.1.3,19.5.7v.8c-8.9,23.6-18.8,47-28,70.5-4.8-.3-9.6-.4-14.4-.3l-.6-.7c-9.1-23.2-19-46.1-27.5-69.5v-.9c.6-.9,16.6-.2,19,0,.4,0,.8-.2,1,.3l15.4,38.2,15.5-39Z"/>
  <path class="st52" d="M1141.4,527.5l.4.6v76.9c0,0-.4,1-.4,1-4.3,4.3-8.5,8.7-12.8,13h-22.2c.5-5.6-.7-12.4,0-17.8s0-.6.5-.7c4.7.4,9.3.4,14,0,.5-.4,1.4-2,2-2.5.2-.9.3-1.3.5-.5.2-20.5.2-41,0-61.5-.1-.3-3-3-3.2-3h-13.8v-18.5h22.2c1.9,2.1,4.1,3.9,6,6s3.5,4.9,6.7,7Z"/>
  <path class="st27" d="M384.9,506c37.8-.4,75.7-.4,113.7,0l4.8.5c1.1.6,1.6,1.4,2,2.5v71c0,2.1-2.4,4-4.5,4h-114.5c-2.1-.1-3.8-1-4.5-3-.5-24.2-.5-48.3,0-72.5.5-1.2,1.8-2.1,3-2.5Z"/>
  <path class="st52" d="M1056.4,516c.9.6,1,1,1.5,1.5,3.8,3.5,7.5,7,11,10.5.2.5.8.9.5,1.7v74.1c.2.8-.3,1.2-.5,1.7-3,2.4-7.6,7.3-11,11-.5.4-.7.9-1.5,1.5-4.5,1-9.2,1.2-14,.5l-.2-17.6c1.9,0,3.9-.1,5.7-.4.7-.5,2.6-2.8,2.5-3.7l-.3-61.3c-.5-.9-1.6-1.4-2.2-2l-.4-.6c-1.8,0-3.5-.2-5.1-.4l-.3-17.7c.2-.7,13.7-.5,14.3,1.2Z"/>
  <path class="st52" d="M1019.9,617c-4.3-3.5-8.7-7.8-12-12.3-.1-25.2,0-50.4.2-75.6,0-.6.2-1.1.5-1.6.6-.9,11.9-12.2,12.7-12.6s.2,0,.4,0c4.2-.4,8.7-.6,12.8,0,.4,5.6.4,11.9,0,17.5-1.6.2-3.4.4-5.5.5-.7.5-2.6,2.8-2.5,3.7l.3,61.8c.6.7,1.4,1.6,2.2,2,1.9.1,3.8.3,5.5.5.6,2.3,1,16.6.2,17.7s-12.4.1-13.6-.5-.9-.7-1.1-1.2Z"/>
  <path class="st52" d="M771.9,619l-.5-79.5h19l-.5,79.5c-5.7-.3-11.5-.5-17.5-.5h-.5c.4.1.4.3,0,.5Z"/>
  <path class="st52" d="M1441.9,558c.4,0,.6.3.5.9v45.9c-4,5-8.8,9.5-13.5,13.7-4,.6-8.5.4-12.5,0-.3,0-.5-.1-.5-.2-.4-5.2-.4-11.7,0-16.9s.2-.2.5-.3c1.6-.1,3.3-.3,5-.5.4-.3,2.4-2.7,2.5-3.3v-21.2c-2.8-.2-5.7-.4-8.5-.5-1.3-5.3-.8-12.1,0-17.5,8.8-.4,17.6-.4,26.5,0Z"/>
  <path class="st52" d="M1384.9,525.5c1.3-1.4,10-11,10.8-11h13.8v18.5c-3.5-.2-7-.5-8.5,3.3-.1,12.3.1,24.7,0,37,0,.8.3,2.2-.5,2.7-.4-.1-.4-.3,0-.5h-.5c-5.6.4-11.3.4-17,0-.9-15.8-.7-31.8-.2-47.6l2.2-2.4Z"/>
  <path class="st52" d="M663.9,535.5c.3,0,.5,0,.5,0,.2,27.3.3,55.7,0,82.9-5.6.4-11.9.4-17.5,0-.2-13.1-.3-26.1-.5-39,6.6-13.9,10.6-30.4,17.5-44Z"/>
  <path class="st52" d="M612.4,579.5c-.2,12.8-.3,25.8-.5,39-5.6.4-11.9.4-17.5,0-.3-26.7-.2-55.1,0-82.2,0-.1.2-.2.5-.3,6.6,14.2,11.3,29.2,17.5,43.5Z"/>
  <path class="st52" d="M1327.9,580c-.2,12.6-.3,25.4-.5,38.5-5.9.4-11.9.4-18,.1,0-27.4.1-54.9.3-82.3l.7-.3c6.3,14.4,11.4,29.5,17.5,44Z"/>
  <path class="st52" d="M994.4,618.5c-5.4.2-11.6.2-17,0h-.5c-.3-13.2-.3-26.4,0-39.5,5.6-14.2,11.2-28.4,17-42.5h.7c.2,27.5.2,54.8-.2,82Z"/>
  <path class="st52" d="M942.4,579c.3,13.1.3,26.1,0,39.2l-.5.3c-5.4.2-11.6.2-17,0-.3-27.1-.4-54.3-.2-81.7l.7-.3c5.8,14.1,11.4,28.3,17,42.5Z"/>
  <path class="st52" d="M1295.9,570.5c.4,15.5.4,32.4,0,48-5.8,0-11.7.2-17.5.5v-49c5.9,0,11.7.1,17.5.5Z"/>
  <path class="st52" d="M1295.9,515c.4,15.5.4,32.4,0,48-5.8,0-11.7.2-17.5.5v-49c5.9,0,11.7.1,17.5.5Z"/>
  <path class="st52" d="M1408.9,600.5c.5.2.4.2.5.7.7,5.4-.5,12.2,0,17.8h-13.8c-1,0-11.7-12.5-13.8-13.8v-22.8h19v15.8c0,.2,2,2,2.5,2.2,1.8.5,3.7.3,5.5,0Z"/>
  <path class="st52" d="M1429.4,515l13.5,13.2v19.8h-19c-.5-3.1.9-10.4-.5-12.8s-1.5-1.2-2-1.7c-1.2-.7-2.9-1.1-5-1-.3,0-.5-.2-.5-.2-.2-4.7-.2-10.1,0-14.9-.2-1.1,0-1.9.5-2.4,4.2-.4,8.7-.4,13,0Z"/>
  <path class="st52" d="M864.4,583c0-.5.3-.5.7-.5,5.6-.7,12.6.6,18.3,0l-.5,36.5c-.1-12.2-.3-24.2-.5-36,.5,11.8.5,23.7,0,35.5-5.6.4-11.9.4-17.5,0l-.5-35.5Z"/>
  <path class="st52" d="M1172.9,583c0,11.9-.1,23.7-.5,35.5-5.6.4-11.9.4-17.5,0-.4-11.7-.5-23.5-.5-35.5,0-.7.7-.5,1.2-.5,3.2-.4,12.8-.4,16.1,0s1.2-.2,1.2.5Z"/>
  <path class="st52" d="M1204.9,515c.5,5.9.5,11.7,0,17.5-8.6-.1-16.9,0-25,.5l-.5-.7c.5-5.2-.6-11.5,0-16.6s-.2-1.2.5-1.2c8.3,0,16.7,0,25,.5Z"/>
  <path class="st52" d="M1204.9,601c.4,5.6.4,11.9,0,17.5-8.6-.1-16.9,0-25,.5l-.5-.7c.5-5.2-.6-11.5,0-16.6s-.2-1.2.5-1.2l25,.5Z"/>
  <path class="st52" d="M723.4,618s-.4,0-.5-.3l-3-15.2h19.2c.3,0,.6,2.4.8,3-.2.9-.7,2.9,0,1.5.5,2.4,2.8,9.5,2.5,11.5-6.1.4-12.3.3-18.4.2l-.6-.7Z"/>
  <path class="st52" d="M1196.4,558c.2.2.4.4.5.7.3,3.9.7,12.7,0,16.2s-.3.4-.5.6c-5.5,0-11,.2-16.5.5-.7,0-.5-.7-.5-1.2-.6-5.1.5-11.3,0-16.6l.5-.7c5.6,0,11.1.1,16.5.5Z"/>
  <path class="st58" d="M522.4,613c-1,.4-2.1.5-3.2.5h-152c-1.1,0-2.3-.4-3.2-1l158.5.5Z"/>
  <path class="st62" d="M1034.9,514.5c.6,6,.6,12.5,0,18.5-1.3.4-4.4-.3-6,0,1.4-1,5.5-.2,5.5-.5v-17.5h-12.8c-.9,0-10.8,11.6-12.8,12.7l-.5,1.5v75.5c0,.4.3.7.5,1,.6,1,9.6,9.9,11,11.2v.5c-4.3-3.4-7.9-8.1-12-11.7l-.5-1c.3-25.6-.6-51.6.5-77l13-13c.7-.3,13.2-.5,14-.3Z"/>
  <path class="st37" d="M503.4,586h-119.5c1.1-.3,2.5-.4,3.7-.5,36.6-2.3,75.7,1.8,112.5,0,1.1,0,2.2.2,3.2.5Z"/>
  <path class="st26" d="M503.4,506.5l-118.5-.5c1.1-.4,2.1-.4,3.2-.5,35.9-2.4,74.4,1.9,110.5,0,1.5,0,3.4.3,4.7,1Z"/>
  <path class="st14" d="M1099.9,619c-.4,0-.6-.2-.5-.5l-1-.3v-102.5l1-.6c-.2-.2,0-.4.5-.5v104.5Z"/>
  <path class="st60" d="M840.9,619c-.4,0-.6-.2-.5-.5-.4,0-1-.1-1-.3-.3-33.8-.3-68.7,0-102.5l1-.6c-.2-.2,0-.4.5-.5v104.5Z"/>
  <path class="st7" d="M1310.4,536l-.5,82.5h17.5c.3.1.3.3,0,.5h-18.5v-86c1.3.3,1.1,2,1.5,3Z"/>
  <path class="st57" d="M864.9,514.5h18.5v61.5h-35.5c-.4-.6-.2-.9.5-.5l.5-1h32.9l.6,1-1-.3v-59.5l1-.6c-.1.4-.3,1-.6,1-2.1.1-15.1.4-16.2,0l-.7-1v-.5Z"/>
  <path class="st18" d="M925.4,536.5l-.5,82c.2.2,0,.4-.5.5l-.5-85.7c1.2-.3,1.3,2.8,1.5,3.2Z"/>
  <path class="st18" d="M994.9,619c-.4,0-.5-.2-.5-.5l-.5-82c.2-.5.3-3.5,1.5-3.2l-.5,85.7Z"/>
  <path class="st46" d="M1172.4,515c0,.4-.2.9-.6,1-1.1.4-14.1.1-16.2,0l-.7-1,1,.3v59.5l-1,.6c.1-.4.3-1,.6-1,3.5-.5,12.6-.4,16.2,0l.7,1-1-.3v-59.5l1-.6.5,61h-18.5v-61.5c5.4.4,11.5-.6,16.8,0s1,0,1.2.5Z"/>
  <path class="st61" d="M1141.4,606v-78.5c.2.1.6.2.8.5l.2,77.2c-.2.6-.7.6-.9.8Z"/>
  <path class="st12" d="M612.4,579.5v39.5h-18.5v-84.2c1.5-1,.8.8,1,1.2l-.5,82.5h17.5c-.1-12.4.2-24.9,0-37.3s0-1.2.5-1.7Z"/>
  <path class="st13" d="M663.9,535.5c.2-.4-.2-1.8,1-.7v84.2h-18.5v-39.5c.5.5.6,1.1.5,1.7-.3,12.4.2,24.9,0,37.3h17.5l-.5-83Z"/>
  <path class="st32" d="M381.9,581c-.3-.9-.5-1.8-.5-2.7,1.1-21.5-1.3-44.2,0-65.5s.3-3.5.5-4.2v72.5Z"/>
  <path class="st62" d="M1428.9,619c-.4-.1-.4-.3,0-.5l12.5-12.7.5-1v-46.7c-.2-.2,0-.4.5-.5l.5,1.2v46c-4.1,5.1-9.2,9.7-14,14.3Z"/>
  <path class="st22" d="M500.9,584h-114.5,114.5Z"/>
  <path class="st9" d="M822.9,515l1,.3v102.5l-1,.6c.4.1.4.3,0,.5v-104.5c.4.1.4.3,0,.5Z"/>
  <path class="st48" d="M1369.4,619c-.4-.1-.4-.3,0-.5v-103.5c-.4-.1-.4-.3,0-.5v104.5Z"/>
  <path class="st25" d="M1081.9,515l1,.3v102.5l-1,.6c.4.1.4.3,0,.5v-104.5c.4.1.4.3,0,.5Z"/>
  <path class="st47" d="M1382.9,575.5c.2.2,0,.4-.5.5l-.5-1.2v-45.6c0-1.9,2-2.6,3-3.7l-1.7,2.5c-.6,15.8,0,31.7-.3,47.5Z"/>
  <path class="st30" d="M1296.4,563.5c-.4,0-.5-.2-.5-.5v-48c-.3-.2-.1-.4.5-.5v49Z"/>
  <path class="st30" d="M1296.4,619c-.4,0-.5-.2-.5-.5v-48c-.3-.2-.1-.4.5-.5v49Z"/>
  <path class="st4" d="M1235.9,514.5v.5l-.6,1h-15.8s0,76.9,0,76.9l-1,.6c-.1.3-.3.3-.5,0v-79h18Z"/>
  <polygon class="st46" points="1154.4 583 1154.9 618.5 1172.4 618.5 1172.9 583 1172.9 619 1154.4 619 1154.4 583"/>
  <path class="st34" d="M1217.9,593.5c.4.1.4.3,0,.5v-79.5,79Z"/>
  <path class="st53" d="M1236.4,593.5c-.2.3-.3.3-.5,0l-1-.3v-77.5l1-.6v-.5l.5,79Z"/>
  <path class="st54" d="M977.4,618.5c.2.2,0,.4-.5.5-.7,0-.5-.7-.5-1.2-1.4-11.5.7-27,.5-38.8l.5,39.5Z"/>
  <path class="st54" d="M942.4,619c-.4,0-.5-.2-.5-.5l.5-39.5c-.2,11.8,2,27.2.5,38.8,0,.5.2,1.2-.5,1.2Z"/>
  <path class="st36" d="M505.4,580v-71,71Z"/>
  <path class="st50" d="M1123.4,536c.1.3.7.6.5,1.2v60.1c.2,1.1-.9.6-1,.7l.5-62Z"/>
  <path class="st4" d="M809.9,514.5c.4.6.2.9-.5.5,0,.4-.1,1-.3,1-17.1.3-35.6.5-52.7,0-2,.3-3.3,0-3.9-1-.7.6-.8.3-.5-.5h58Z"/>
  <path class="st4" d="M809.4,532.5c.6-.7.8-.4.5.5h-58c-.5-.7-.2-.9.5-.5.8-.6,1.6-1,2.6-1.2,17.2,0,34.4,0,51.7.4l2.7.8Z"/>
  <path class="st55" d="M1429.4,515h-13v17.5c1.4.2,3.5-.3,4.7,0s.2.9.3,1c-1.8-.9-4-.4-6-.5v-18.5c4.6.3,9.6-.6,14,.5Z"/>
  <path class="st51" d="M882.9,619h-18v-.5h17.5v-35.5c.9-.1.5,1.1.5,1.7.5,11.4-.4,22.9,0,34.3Z"/>
  <path class="st59" d="M1034.9,600.5c.5.2.4.2.5.7.7,5.4-.5,12.2,0,17.8-3.4-.6-12.3,1-14.8-.5s-.5-.9-.7-1v-.5c3.4,3,10.1.9,14.5,1.5.5-5.5-.6-12.1,0-17.5-.3-.3-.1-.5.5-.5Z"/>
  <path class="st17" d="M864.9,515l.9.8c.3,13.9.2,27.7-.3,41.5l-1.2.2.5-43v.5Z"/>
  <path class="st31" d="M1243.4,600.5h22.5s-.5,18.5-.5,18.5c-.5,0-.4-.2,0-.5l-.9-1.5c.1-5-.1-10.1-.4-15h-20.1s-.6-1-.6-1v-.5Z"/>
  <path class="st16" d="M737.4,596h-39,39Z"/>
  <path class="st25" d="M1327.4,619v-.5c.1-11.9-.2-23.8,0-35.8s-.3-2.2.5-2.7c-1.1,11.8,1.4,26.3,0,37.8,0,.5.2,1.2-.5,1.2Z"/>
  <path class="st39" d="M752.4,515c.5.3.9.7,1.1,1.2.5,1.7,0,12.4-.2,15l-.9,1.3c-.2,0-.4.3-.5.5-.7,0-.5-.7-.5-1.2-.4-3.2-.4-12.8,0-16.1s-.2-1.2.5-1.2c0,.2.5.4.5.5Z"/>
  <path class="st47" d="M809.9,533l-.5-.5c-.4-.1-1-.3-1-.6-.1-1.9-.3-15.4,0-16.2s.6-.6,1-.7l.5-.5c.7,0,.5.7.5,1.2.4,3.2.4,12.8,0,16.1s.2,1.2-.5,1.2Z"/>
  <path class="st15" d="M848.4,558l.9,1.3c.2,2.5.7,13.3.2,15s-.7.9-1.1,1.2c0,0-.4.3-.5.5-.7,0-.5-.7-.5-1.2-.6-5.1.5-11.3,0-16.6l.5-.7c.4,0,.5.2.5.5Z"/>
  <path class="st14" d="M1416.4,601v17.5c.3.2.1.4-.5.5-.7-.2-.5-.7-.5-1.2-.4-3.2-.4-12.8,0-16.1s-.2-1,.5-1.2c.4,0,.6,0,.5.5Z"/>
  <path class="st10" d="M1415.4,558c.6,5.4-.5,12,0,17.5.3.3.2.4-.5.5-.7-.2-.5-.7-.5-1.2-.4-3.2-.4-12.8,0-16.1s-.2-1.2.5-1.2c.4,0,.6.2.5.5Z"/>
  <path class="st14" d="M1196.9,576c-.4,0-.5-.2-.5-.5.5-5.5-.6-12.1,0-17.5-.2-.2,0-.4.5-.5l.5.7c-.5,5.2.6,11.5,0,16.6s.2,1.2-.5,1.2Z"/>
  <polygon class="st17" points="864.9 618.5 864.9 619 864.4 583 864.9 618.5"/>
  <path class="st40" d="M1218.4,601l1,.6v15.8s15.8,0,15.8,0l.7,1c.3.1.3.3,0,.5h-18s0-18,0-18h.5Z"/>
  <path class="st19" d="M1056.4,516c-3.4-2.2-9.9-.5-14-1,.4,5.6-.6,12,0,17.5.4.2.4.3,0,.5l-.5-18.5c4.1.4,8.8-.5,12.8,0s1.7.2,1.7,1.5Z"/>
  <path class="st4" d="M714.4,577.5l-31.5.5c1.5-1.4,27.4,0,31.5-.5Z"/>
  <path class="st16" d="M1442.4,557.5c0,.2-.3.5-.5.5-8.4.8-18-.6-26.5,0,0,0-.4-.3-.5-.5h27.5Z"/>
  <path class="st40" d="M720.9,515l-25.5.5c-.3-1.5.8-1,1.7-1,6.9-.2,14.1,0,21,0s2.2-.3,2.7.5Z"/>
  <path class="st4" d="M1204.9,532.5c.1-.4.3-.4.5,0l-25.5.5c.5-.8,1.9-.5,2.7-.5,7.4,0,14.8,0,22.3,0Z"/>
  <path class="st4" d="M1204.9,618.5c.1-.4.3-.4.5,0l-25.5.5c.5-.8,1.9-.5,2.7-.5,7.4,0,14.8,0,22.3,0Z"/>
  <path class="st16" d="M1205.4,601c-.1.4-.3.4-.5,0l-25-.5,25.5.5Z"/>
  <path class="st4" d="M1204.9,515l-25-.5c3.4.5,23.6-.9,25,.5Z"/>
  <path class="st44" d="M1047.9,600.5c-1.5,1.1-3.7.3-5.5.5.4,5.6-.6,12,0,17.5.4.2.4.3,0,.5l-.5-18.5h6Z"/>
  <path class="st2" d="M1068.9,605.5c-1,2-8.8,9.1-11,11l2-2.7c2.5-2.5,5-5,7.5-7.5s1.3-1.7,1.5-.8Z"/>
  <path class="st8" d="M1309.4,516c-.1-.3-.6-1.4-.2-1.5,6.2.2,12.4-.2,18.5,0s2-.5,1.7,1c-.6,1-.1-.4-1.2-.5-4.1-.5-12.8-.3-17.1,0s-1.2,0-1.7,1Z"/>
  <path class="st4" d="M1265.4,618.5c0,.2,0,.3,0,.5h-22v-.5c0-.2,0-.5,0-.7.3-1,19.7-.6,21.4-.3l.6,1Z"/>
  <path class="st23" d="M1068.9,528c-.2,1-1.3-.5-1.5-.8-3.2-3.2-6.3-6.6-9.5-9.7,1,0,1.4.7,2,1.2,1.7,1.5,8.3,7.8,9,9.3Z"/>
  <path class="st33" d="M943.4,515c-4.4-.4-12.8-.4-17.3,0s-1.2,0-1.7,1c-.2-.5-.7-.8-.5-1.5l19.5.5Z"/>
  <path class="st8" d="M975.4,514.5h20c-.3.5-.3,1-.5,1.5-.5-1-.7-1-1.7-1-4.8-.3-10.2.1-15.1,0s-2.2.3-2.7-.5Z"/>
  <path class="st19" d="M613.4,514.5l-19.5,1c-.1-.3-.6-.9-.5-1h20Z"/>
  <path class="st19" d="M664.4,515l-20,.5.5-.8c.8-.4,16.3-.5,18.3-.3s1.1,0,1.2.5Z"/>
  <path class="st42" d="M723.4,618c.6-1,.2.5,1.2.5,5.8.3,11.9-.3,17.8,0-.2,1.1-16.7.2-18.7.5-.6,0-.2-.7-.3-1Z"/>
  <path class="st19" d="M1369.4,618.5v.5c-3.3-.6-17.6,1-19.5-.5h19.5Z"/>
  <path class="st19" d="M693.4,618.5c-.7.7-.9.5-1.7.5-4,.3-12.2.4-16.1,0s-1.2.2-1.2-.5h19Z"/>
  <path class="st52" d="M1034.9,533v-18.5c.7.2.5.7.5,1.2.4,3.2.4,12.8,0,16.1s.2,1-.5,1.2Z"/>
  <path class="st43" d="M1235.9,593.5h.5c0,.5-.3.5-.7.5-5.4.7-12.2-.5-17.8,0v-.5h.5c.1-.4.3-1,.6-1,4.8-.3,11.3-.3,16.2,0l.7,1Z"/>
  <path class="st38" d="M1243.4,601l.9.8c-.4,5.3-.4,10.7,0,16l-.9.8c0,.2,0,.3,0,.5-.8-.5-.5-1.9-.5-2.7,0-4.3,0-8.7,0-13s-.3-2.2.5-2.7c0,.2,0,.3,0,.5Z"/>
  <path class="st24" d="M840.9,514.5c0,.2-.3.5-.5.5-.4.5-.8.9-1.4,1.1-1.6.5-12.1,0-14.6-.2l-1.5-.9v-.5h18Z"/>
  <path class="st4" d="M1099.9,514.5c0,.2-.3.5-.5.5-.4.5-.8.9-1.4,1.1-1.6.5-12.1,0-14.6-.2l-1.5-.9v-.5h18Z"/>
  <path class="st4" d="M994.4,618.5c.2,0,.4.3.5.5h-18c0-.2.3-.5.5-.5,3.7-.4,13.5-.5,17,0Z"/>
  <path class="st0" d="M1235.9,619v-.5c-.4-.1-1-.3-1-.6-.3-4.8-.3-11.3,0-16.2l1-.7c.7.7.5.9.5,1.7.3,3.7.4,12,0,15.6s0,.7-.5.7Z"/>
  <polygon class="st4" points="1296.4 514.5 1295.9 515 1278.4 514.5 1296.4 514.5"/>
  <path class="st4" d="M1399.9,575.5c.1-.4.3-.4.5,0v.5h-18c0-.2.3-.5.5-.5,5.4-.5,11.5.4,17,0Z"/>
  <polygon class="st16" points="1296.4 570 1295.9 570.5 1278.4 570 1296.4 570"/>
  <path class="st24" d="M1369.4,514.5v.5h-17.5c-.1.4-.3.4-.5,0v-.5h18Z"/>
  <path class="st16" d="M1295.9,563c.2,0,.4.3.5.5h-18c.5-.8,1.9-.5,2.7-.5,4.2,0,10.9-.5,14.8,0Z"/>
  <path class="st4" d="M789.9,619h-18v-.5c.1-.4.3-.4.5,0,4.9,0,9.8,0,14.8,0s2.2-.3,2.7.5Z"/>
  <path class="st24" d="M840.4,618.5c.2,0,.4.3.5.5h-18v-.5l1.5-.9c2.5-.2,13-.7,14.6-.2s1,.6,1.4,1.1Z"/>
  <path class="st4" d="M941.9,618.5c.2,0,.4.3.5.5h-18c0-.2.3-.5.5-.5,3.7-.4,13.5-.5,17,0Z"/>
  <path class="st4" d="M1099.4,618.5c.2,0,.4.3.5.5h-18v-.5l1.5-.9c2.5-.2,13-.7,14.6-.2s1,.6,1.4,1.1Z"/>
  <path class="st4" d="M1295.9,618.5c.2,0,.4.3.5.5h-18c.5-.8,1.9-.5,2.7-.5,4.2,0,10.9-.5,14.8,0Z"/>
  <path class="st43" d="M1235.9,601c-.3.5-.8.9-1.4,1.1-.8.3-12.7,0-14.7-.2l-1.5-.9c-.2,0-.3,0-.5,0,.5-.8,1.9-.5,2.7-.5,4.2,0,9.4-.3,13.6,0s1-.1,1.7.5Z"/>
  <path class="st33" d="M1205.4,532.5h-.5v-17.5c.5.5.5.5.5,1.2.5,5.1-.4,11.1,0,16.3Z"/>
  <rect class="st4" x="1204.9" y="601" width=".5" height="17.5"/>
  <path class="st20" d="M1196.9,557.5c0,.2-.5.4-.5.5l-16.5-.5h17Z"/>
  <path class="st4" d="M1196.4,575.5c.2,0,.4.3.5.5h-17c.5-.8,1.9-.5,2.7-.5,3.9,0,10.2-.5,13.8,0Z"/>
  <path class="st16" d="M864.4,557.5c.3.3.5.8.2,1.1-.7.9-13.6.7-15.6.4l-.6-1.1c-.2,0-.4-.3-.5-.5h16.5Z"/>
  <path class="st4" d="M951.9,585.5c.6-1,.2.5,1.2.5,4.5.2,9.5-.7,13.8.5h-15s0-1,0-1Z"/>
  <path class="st19" d="M636.9,585.5l-.3,1c-.9.2-13.2.2-14.2,0l14.5-1Z"/>
  <path class="st19" d="M1056.4,618c-.5.4-.1.8-1.7,1-3.7.5-8.4-.4-12.3,0,0-.2,0-.3,0-.5,4.6-.2,9.5.6,14-.5Z"/>
  <path class="st16" d="M1120.9,600.5c-1.3.9-9,.5-11.3.5s-2.2.3-2.7-.5c2.8-.9,10.6.7,14,0Z"/>
  <path class="st19" d="M1428.9,618.5v.5c-.9.2-12.4.2-13,0,0-.2.3-.5.5-.5,4-.4,8.5.3,12.5,0Z"/>
  <path class="st36" d="M524.9,610.5c-.9-1.3-.8-4.3,0-5.5.8,1.8.7,3.7,0,5.5Z"/>
  <path class="st8" d="M1423.9,576c-2.3-.4-7.2.6-9,0,0-.2.3-.5.5-.5,1.9-.2,5.9-.2,7.8,0s.7,0,.7.5Z"/>
  <path class="st26" d="M516.9,597.5l-.3.5c-1.5-.5-2.5-2.2-3.7-3.3l.5-.2c1.1,1,2.4,2,3.5,3Z"/>
  <path class="st26" d="M510.4,591.5l-.3.5c-1.5-.5-2.5-2.2-3.7-3.3l.5-.2c1.2,1,2.4,2,3.5,3Z"/>
  <path class="st26" d="M523.4,603.5l-.3.5c-1.5-.5-2.5-2.2-3.7-3.3l.5-.2c1.1,1,2.5,2,3.5,3Z"/>
  <path class="st28" d="M1034.9,600.5c0,.2-.5.4-.5.5-2,0-3.6.4-5.5-.5,1.6.3,4.7-.4,6,0Z"/>
  <path class="st35" d="M732.4,568.5c-.1.4-.3.4-.5,0-.2-1-1.6-3.1-.5-4,.3,1.3.7,2.7,1,4Z"/>
  <path class="st4" d="M1042.4,532.5c1.5.2,3.9-.3,5.2,0s.2.9.3,1c-1.2-1.1-4.7,0-5.5-.5s0-.3,0-.5Z"/>
  <path class="st64" d="M1421.4,600.5c-1,.7-3.6.7-5,.5s-.4-.3-.5-.5c1.2-.4,4.1.3,5.5,0Z"/>
  <path class="st28" d="M1408.9,600.5c-1.3.9-4,.7-5.5,0,1.5.3,4.3-.4,5.5,0Z"/>
  <path class="st35" d="M707.4,549c-.1.7.4,2.1-.5,2.5,0-.5-.4-2.6,0-3.5.7-.2.5.3.5,1Z"/>
  <path class="st35" d="M706.4,555.5c-1-.7-.7-2.7.5-3-.1,1-.3,2-.5,3Z"/>
  <path class="st1" d="M684.4,569.5c.2-1,.3-2,.5-3,1,.7.4,2.4-.5,3Z"/>
  <path class="st63" d="M373.9,594.5c.5-.4.9-1,1.5-1.5l.5.2c-.5.7-1.1,1.2-2,1.3Z"/>
  <path class="st63" d="M367.4,600.5c.5-.5,1-1,1.5-1.5l.5.2c-.5.7-1.1,1.2-2,1.3Z"/>
  <path class="st35" d="M732.4,570c-.6,2.6-.3-.4-.5-1.5h.5c0,.5,0,1,0,1.5Z"/>
  <path class="st5" d="M730.9,562.5c0,2.4-1.3-.2,0-1.5,0,.5,0,1,0,1.5Z"/>
  <path class="st35" d="M739.9,607c0,2.4-1.3-.2,0-1.5,0,.4,0,1.1,0,1.5Z"/>
  <polygon class="st6" points="1351.9 515 1351.6 570.5 1351.4 515 1351.9 515"/>
  <path class="st65" d="M464.9,597.5c.3.7,3.8,5.3,3.5,5.5h-49c-.1.4-.3.4-.5,0,1-1.9,2.6-3.8,3.5-5.5,13.7-.4,28.7-.4,42.5,0Z"/>
  <path class="st49" d="M454.9,605c0,1.1.4,3-.8,3.4-6.2-.4-13.9.8-20,0s-2.6-1.8-1.7-3.5c7.6-.2,15.1-.2,22.5,0Z"/>
  <path class="st45" d="M419.4,603c.5.5,1.1.5,1.7.5,14.7.8,30.3-.6,45.1,0s1.9-.4,1.7.5h-49.2c-.9-.6.2-.9.2-1h.5Z"/>
  <path class="st22" d="M422.4,597.5s-.9-.4-.2-.5h43c.7.1-.3.5-.2.5h-42.5Z"/>
  <path class="st21" d="M432.4,605l22.3-.5c1.5-.2,1.6,3,1,3l-.7-2.5h-22.5Z"/>
  <rect class="st45" x="433.4" y="609" width="20" height=".5"/>
  <rect class="st56" x="387.9" y="512" width="111" height="65.5"/>
  <path class="st22" d="M498.9,512h-111,111Z"/>
  <path class="st41" d="M387.9,577.5v-65.5,65.5Z"/>
  <rect class="st36" x="499.4" y="512" width=".5" height="65.5"/>
  <rect class="st3" x="1050.9" y="536" width=".5" height="61.5"/>
  <rect class="st11" x="1025.4" y="536" width=".5" height="61.5"/>
  <polygon class="st3" points="772.4 618.5 771.9 618.5 772.1 540 772.4 618.5"/>
  <rect class="st54" x="1424.4" y="576.5" width=".5" height="21"/>
  <polygon class="st29" points="1400.4 575.5 1399.9 575.5 1400.1 536 1400.4 575.5"/>
  <rect class="st29" x="1399.9" y="583" width=".5" height="14.5"/>
  <path class="st52" d="M1099.4,515v103.5c-5.5-.5-11.9.4-17.5,0v-103.5c5.6-.4,12,.5,17.5,0Z"/>
  <path class="st52" d="M840.4,515v103.5c-5.5-.5-11.9.4-17.5,0v-103.5c5.6-.4,12,.5,17.5,0Z"/>
  <path class="st52" d="M864.9,515h17.5v60.5h-34c.6-5.4-.5-12,0-17.5,3,.4,11.7.3,14.8,0s.7,0,1.2-.5c1.5-1.5-.1-37.5.5-42.5Z"/>
  <rect class="st52" x="1154.9" y="515" width="17.5" height="60.5"/>
  <rect class="st52" x="1218.4" y="515" width="17.5" height="78.5"/>
  <path class="st52" d="M809.4,515v17.5c-18.3,1.3-39-1.7-57,0-.5-5.5.6-12.1,0-17.5h57Z"/>
  <path class="st52" d="M1243.4,601h22c-.4,5.6.6,12,0,17.5h-22c-.4-4.2-.4-13.3,0-17.5Z"/>
  <path class="st52" d="M1235.9,601v17.5h-17.5s0-17.5,0-17.5c5.5-.6,11.9.4,17.5,0Z"/>
</svg>